<?xml version="1.0" standalone="no"?><!DOCTYPE svg PUBLIC "-//W3C//DTD SVG 1.1//EN" "http://www.w3.org/Graphics/SVG/1.1/DTD/svg11.dtd"><svg t="1649169446968" class="icon" viewBox="0 0 1024 1024" version="1.1" xmlns="http://www.w3.org/2000/svg" p-id="21634" xmlns:xlink="http://www.w3.org/1999/xlink" width="200" height="200"><defs><style type="text/css">@font-face { font-family: feedback-iconfont; src: url("//at.alicdn.com/t/font_1031158_u69w8yhxdu.woff2?t=1630033759944") format("woff2"), url("//at.alicdn.com/t/font_1031158_u69w8yhxdu.woff?t=1630033759944") format("woff"), url("//at.alicdn.com/t/font_1031158_u69w8yhxdu.ttf?t=1630033759944") format("truetype"); }
</style></defs><path d="M1022.6 745.8c-5.4-68.6-41.6-124.3-96.8-153.7l1-292.4-110.9-68-89.4 57.6-1 283.5-36.3-0.9c-2.1-6.8-4.3-13.2-6.6-19.6h4.9l-1.1-392.6L514.2 54.5 359.7 155l-1 229.7C279.3 399.9 197 454.5 168 606.1l-38.5 1.2c-46.9 1.7-84.7 25.2-106.3 66.3C-14 744.4 4.5 853.4 43 913.8c23.2 36.4 53.6 56.2 84.4 56.2 1.2 0 2.3 0 3.5-0.1h756.8l7.6-3.5c83.4-38.6 134.6-127.3 127.3-220.6zM751.8 303.2l64.5-41.5 85.2 52.2-0.9 267.2c-3.6-1.3-7.1-2.9-10.8-4l-138.9-3.5 0.9-270.4zM515 114.3l120.9 73.9 0.8 276.7c-51-66.4-126.2-94.5-227.3-85.4l0.8-196.9L515 114.3zM870.5 894H129.1c-2.3 0-11.7-4.8-22-21-26.6-41.8-39.4-120.9-16.6-164.2 9-17.1 21.9-25.1 41.6-25.8l101.9-3.1 4.2-32c22.4-170.8 108.7-191.7 171.6-192.6l3.2-0.2c11.6-1.2 22.6-1.7 33.1-1.7 96.9 0 149.2 49.7 177.2 164.8l6.9 28.4 243.2 4.7c42.3 13.9 69.7 51 73.5 100.3 3.9 49.6-18.4 111.7-76.4 142.4z" p-id="21635" fill="#b0e245"></path><path d="M447.1 257.3h49.5v49.5h-49.5zM549.4 257.3h49.5v49.5h-49.5zM776.8 384.6h73.5v22.9h-73.5zM776 460.5h74.3v22.1H776z" p-id="21636" fill="#b0e245"></path></svg>