<?xml version="1.0" standalone="no"?><!DOCTYPE svg PUBLIC "-//W3C//DTD SVG 1.1//EN" "http://www.w3.org/Graphics/SVG/1.1/DTD/svg11.dtd"><svg t="1649169365271" class="icon" viewBox="0 0 1024 1024" version="1.1" xmlns="http://www.w3.org/2000/svg" p-id="20331" xmlns:xlink="http://www.w3.org/1999/xlink" width="200" height="200"><defs><style type="text/css">@font-face { font-family: feedback-iconfont; src: url("//at.alicdn.com/t/font_1031158_u69w8yhxdu.woff2?t=1630033759944") format("woff2"), url("//at.alicdn.com/t/font_1031158_u69w8yhxdu.woff?t=1630033759944") format("woff"), url("//at.alicdn.com/t/font_1031158_u69w8yhxdu.ttf?t=1630033759944") format("truetype"); }
</style></defs><path d="M420.829867 1004.305067c-203.4688-43.444907-338.486613-229.075627-324.164267-436.640427 4.785493-69.393067 25.893547-127.77472 73.386667-192.191147 27.99616-37.976747 345.320107-362.018133 345.320106-362.018133 4.32128-4.52608 11.496107-4.68992 16.022187-0.36864l39.410347 37.649067c4.52608 4.32128 4.68992 11.496107 0.36864 16.022186 0 0-241.11104 235.895467-339.78368 355.6352-40.71424 49.404587-53.998933 96.692907-57.7536 151.04-11.475627 165.922133 94.33088 315.446613 256.18432 353.723734 222.49472 52.61312 421.389653-115.65056 421.389653-329.468587 0-69.515947-21.189973-136.697173-60.33408-193.133227l-274.28864 300.189014-148.411733-114.203307c-6.396587-4.922027-7.591253-14.097067-2.669227-20.486827l29.252267-38.004053c4.922027-6.396587 14.097067-7.591253 20.486826-2.669227L507.446613 600.337067l282.985814-309.684907c1.460907-1.59744 3.979947-1.590613 5.4272 0.02048l19.729066 21.93408c61.535573 68.4032 102.48192 154.016427 110.96064 245.630293 25.688747 277.592747-223.0272 506.42944-505.719466 446.068054z" p-id="20332" fill="#34a706"></path></svg>